#N canvas 20 50 1399 819 10;
#X obj 222 35 osc/unpackOSC;
#X obj 837 551 mrpeach/udpsend;
#X obj 783 468 osc/packOSC;
#X msg 983 520 disconnect;
#X obj 786 289 metro 2000;
#X obj 787 270 tgl 15 0 empty empty empty 17 7 0 10 -262144 -1 -1 0
1;
#X msg 775 247 0;
#X obj 675 193 print /list/step-count;
#X obj 739 213 print /list/end;
#X obj 872 213 print /list/length;
#X msg 844 269 27;
#X obj 929 193 print /list/errors;
#X obj 674 170 osc/routeOSC /step-count /end /name /length /errors
;
#X obj 814 192 print /list/name;
#X obj 220 17 mrpeach/udpreceive 1068;
#X msg 829 497 connect 127.0.0.1 5008;
#X msg 786 312 /index/step trigger;
#X msg 820 366 /index/set 7;
#X msg 856 410 /index/insert 16;
#X msg 629 400 /list init;
#X obj 181 86 print rsid;
#X obj 327 86 print pos;
#X obj 390 87 print gen;
#X obj 251 87 print chrom;
#X obj 202 63 osc/routeOSC /rsid /chromosome /position /genotype /list
;
#X obj 367 452 print;
#N canvas 129 183 1359 661 genotype-encode 0;
#X obj 20 20 inlet;
#X obj 30 60 route AA AC AG AT CC CG CT GG GT TT A C G T -- II I;
#X msg 30 80 0;
#X msg 47 100 1;
#X msg 65 80 2;
#X msg 82 100 3;
#X msg 102 80 4;
#X msg 119 100 5;
#X msg 135 80 6;
#X msg 152 100 7;
#X msg 172 80 8;
#X msg 189 100 9;
#X msg 207 80 10;
#X msg 224 101 11;
#X msg 245 80 12;
#X msg 261 100 13;
#X msg 277 80 14;
#X msg 294 100 15;
#X msg 313 80 16;
#X obj 53 324 outlet;
#X connect 0 0 1 0;
#X connect 1 0 2 0;
#X connect 1 1 3 0;
#X connect 1 2 4 0;
#X connect 1 3 5 0;
#X connect 1 4 6 0;
#X connect 1 5 7 0;
#X connect 1 6 8 0;
#X connect 1 7 9 0;
#X connect 1 8 10 0;
#X connect 1 9 11 0;
#X connect 1 10 12 0;
#X connect 1 11 13 0;
#X connect 1 12 14 0;
#X connect 1 13 15 0;
#X connect 1 14 16 0;
#X connect 1 15 17 0;
#X connect 1 16 18 0;
#X connect 2 0 19 0;
#X connect 3 0 19 0;
#X connect 4 0 19 0;
#X connect 5 0 19 0;
#X connect 6 0 19 0;
#X connect 7 0 19 0;
#X connect 8 0 19 0;
#X connect 9 0 19 0;
#X connect 10 0 19 0;
#X connect 11 0 19 0;
#X connect 12 0 19 0;
#X connect 13 0 19 0;
#X connect 14 0 19 0;
#X connect 15 0 19 0;
#X connect 16 0 19 0;
#X connect 17 0 19 0;
#X connect 18 0 19 0;
#X restore 479 326 pd genotype-encode;
#X connect 0 0 24 0;
#X connect 2 0 1 0;
#X connect 3 0 1 0;
#X connect 4 0 16 0;
#X connect 5 0 4 0;
#X connect 6 0 5 0;
#X connect 10 0 4 1;
#X connect 12 0 7 0;
#X connect 12 1 6 0;
#X connect 12 1 8 0;
#X connect 12 2 13 0;
#X connect 12 3 9 0;
#X connect 12 4 11 0;
#X connect 14 0 0 0;
#X connect 15 0 1 0;
#X connect 16 0 2 0;
#X connect 17 0 2 0;
#X connect 18 0 2 0;
#X connect 19 0 2 0;
#X connect 24 0 20 0;
#X connect 24 1 23 0;
#X connect 24 2 21 0;
#X connect 24 3 22 0;
#X connect 24 3 26 0;
#X connect 24 4 12 0;
#X connect 26 0 25 0;
