#N canvas 0 23 1674 981 10;
#X obj 222 35 osc/unpackOSC;
#X obj 837 551 mrpeach/udpsend;
#X obj 783 468 osc/packOSC;
#X msg 983 520 disconnect;
#X obj 786 289 metro 2000;
#X obj 787 270 tgl 15 0 empty empty empty 17 7 0 10 -262144 -1 -1 0
1;
#X msg 775 247 0;
#X obj 675 193 print /list/step-count;
#X obj 739 213 print /list/end;
#X obj 872 213 print /list/length;
#X obj 929 193 print /list/errors;
#X obj 674 170 osc/routeOSC /step-count /end /name /length /errors
;
#X obj 814 192 print /list/name;
#X obj 220 17 mrpeach/udpreceive 1068;
#X msg 829 497 connect 127.0.0.1 5008;
#X msg 786 312 /index/step trigger;
#X msg 856 410 /index/insert 16;
#X msg 629 400 /list init;
#X obj 181 86 print rsid;
#X obj 327 86 print pos;
#X obj 390 87 print gen;
#X obj 251 87 print chrom;
#X obj 202 63 osc/routeOSC /rsid /chromosome /position /genotype /list
;
#X obj 158 391 print;
#N canvas 0 23 1680 1005 genotype-encode 0;
#X obj 20 20 inlet;
#X obj 30 60 route AA AC AG AT CC CG CT GG GT TT A C G T -- II I;
#X msg 30 80 0;
#X msg 47 100 1;
#X msg 65 80 2;
#X msg 82 100 3;
#X msg 102 80 4;
#X msg 119 100 5;
#X msg 135 80 6;
#X msg 152 100 7;
#X msg 172 80 8;
#X msg 189 100 9;
#X msg 207 80 10;
#X msg 224 101 11;
#X msg 245 80 12;
#X msg 261 100 13;
#X msg 277 80 14;
#X msg 294 100 15;
#X msg 313 80 16;
#X obj 53 324 outlet;
#X connect 0 0 1 0;
#X connect 1 0 2 0;
#X connect 1 1 3 0;
#X connect 1 2 4 0;
#X connect 1 3 5 0;
#X connect 1 4 6 0;
#X connect 1 5 7 0;
#X connect 1 6 8 0;
#X connect 1 7 9 0;
#X connect 1 8 10 0;
#X connect 1 9 11 0;
#X connect 1 10 12 0;
#X connect 1 11 13 0;
#X connect 1 12 14 0;
#X connect 1 13 15 0;
#X connect 1 14 16 0;
#X connect 1 15 17 0;
#X connect 1 16 18 0;
#X connect 2 0 19 0;
#X connect 3 0 19 0;
#X connect 4 0 19 0;
#X connect 5 0 19 0;
#X connect 6 0 19 0;
#X connect 7 0 19 0;
#X connect 8 0 19 0;
#X connect 9 0 19 0;
#X connect 10 0 19 0;
#X connect 11 0 19 0;
#X connect 12 0 19 0;
#X connect 13 0 19 0;
#X connect 14 0 19 0;
#X connect 15 0 19 0;
#X connect 16 0 19 0;
#X connect 17 0 19 0;
#X connect 18 0 19 0;
#X restore 479 326 pd genotype-encode;
#X obj 1238 444 / 16;
#X msg 1240 399 12;
#X obj 1210 483 *;
#X floatatom 1210 504 5 0 0 0 - - -;
#X obj 1228 573 mtof;
#X floatatom 1153 636 5 0 0 0 - - -;
#X obj 1250 633 osc~;
#X obj 1250 735 dac~;
#X obj 1228 552 + 72;
#X obj 138 422 route 0 1 2 3 4 5 6 7 8 9 10 11 12 13 14 15 16;
#X obj 31 497 f;
#X obj 57 498 + 1;
#X floatatom 31 518 5 0 0 0 - - -;
#X obj 71 526 f;
#X obj 97 527 + 1;
#X floatatom 71 547 5 0 0 0 - - -;
#X obj 112 552 f;
#X obj 138 553 + 1;
#X floatatom 112 573 5 0 0 0 - - -;
#X obj 131 497 f;
#X obj 157 498 + 1;
#X floatatom 131 518 5 0 0 0 - - -;
#X obj 171 526 f;
#X obj 197 527 + 1;
#X floatatom 171 547 5 0 0 0 - - -;
#X obj 212 552 f;
#X obj 238 553 + 1;
#X floatatom 212 573 5 0 0 0 - - -;
#X obj 231 497 f;
#X obj 257 498 + 1;
#X floatatom 231 518 5 0 0 0 - - -;
#X obj 271 526 f;
#X obj 297 527 + 1;
#X floatatom 271 547 5 0 0 0 - - -;
#X obj 312 552 f;
#X obj 338 553 + 1;
#X floatatom 312 573 5 0 0 0 - - -;
#X obj 331 497 f;
#X obj 357 498 + 1;
#X floatatom 331 518 5 0 0 0 - - -;
#X obj 371 526 f;
#X obj 397 527 + 1;
#X floatatom 371 547 5 0 0 0 - - -;
#X obj 412 552 f;
#X obj 438 553 + 1;
#X floatatom 412 573 5 0 0 0 - - -;
#X obj 431 497 f;
#X obj 457 498 + 1;
#X floatatom 431 518 5 0 0 0 - - -;
#X obj 471 526 f;
#X obj 497 527 + 1;
#X floatatom 471 547 5 0 0 0 - - -;
#X obj 512 552 f;
#X obj 538 553 + 1;
#X floatatom 512 573 5 0 0 0 - - -;
#X obj 531 497 f;
#X obj 557 498 + 1;
#X floatatom 531 518 5 0 0 0 - - -;
#X obj 571 526 f;
#X obj 597 527 + 1;
#X floatatom 571 547 5 0 0 0 - - -;
#X msg 820 366 /index/set 0;
#X text 30 538 AA;
#X text 73 568 AC;
#X text 111 593 AG;
#X text 132 535 AT;
#X text 173 568 CC;
#X text 213 595 CG;
#X text 232 533 CT;
#X text 275 568 GG;
#X text 314 595 GT;
#X text 331 532 TT;
#X text 372 567 A;
#X text 416 592 C;
#X text 432 534 G;
#X text 470 564 T;
#X text 513 592 --;
#X text 533 535 II;
#X text 576 569 I;
#X msg 846 269 2;
#X obj 1250 654 *~ 0.25;
#X connect 0 0 22 0;
#X connect 2 0 1 0;
#X connect 3 0 1 0;
#X connect 4 0 15 0;
#X connect 5 0 4 0;
#X connect 6 0 5 0;
#X connect 11 0 7 0;
#X connect 11 1 6 0;
#X connect 11 1 8 0;
#X connect 11 2 12 0;
#X connect 11 3 9 0;
#X connect 11 4 10 0;
#X connect 13 0 0 0;
#X connect 14 0 1 0;
#X connect 15 0 2 0;
#X connect 16 0 2 0;
#X connect 17 0 2 0;
#X connect 22 0 18 0;
#X connect 22 1 21 0;
#X connect 22 2 19 0;
#X connect 22 3 20 0;
#X connect 22 3 24 0;
#X connect 22 4 11 0;
#X connect 24 0 23 0;
#X connect 24 0 27 0;
#X connect 24 0 34 0;
#X connect 25 0 27 1;
#X connect 26 0 25 0;
#X connect 27 0 28 0;
#X connect 28 0 33 0;
#X connect 29 0 30 0;
#X connect 29 0 31 0;
#X connect 31 0 105 0;
#X connect 33 0 29 0;
#X connect 34 0 35 0;
#X connect 34 1 38 0;
#X connect 34 2 41 0;
#X connect 34 3 44 0;
#X connect 34 4 47 0;
#X connect 34 5 50 0;
#X connect 34 6 53 0;
#X connect 34 7 56 0;
#X connect 34 8 59 0;
#X connect 34 9 62 0;
#X connect 34 10 65 0;
#X connect 34 11 68 0;
#X connect 34 12 71 0;
#X connect 34 13 74 0;
#X connect 34 14 77 0;
#X connect 34 15 80 0;
#X connect 34 16 83 0;
#X connect 35 0 36 0;
#X connect 35 0 37 0;
#X connect 36 0 35 1;
#X connect 38 0 39 0;
#X connect 38 0 40 0;
#X connect 39 0 38 1;
#X connect 41 0 42 0;
#X connect 41 0 43 0;
#X connect 42 0 41 1;
#X connect 44 0 45 0;
#X connect 44 0 46 0;
#X connect 45 0 44 1;
#X connect 47 0 48 0;
#X connect 47 0 49 0;
#X connect 48 0 47 1;
#X connect 50 0 51 0;
#X connect 50 0 52 0;
#X connect 51 0 50 1;
#X connect 53 0 54 0;
#X connect 53 0 55 0;
#X connect 54 0 53 1;
#X connect 56 0 57 0;
#X connect 56 0 58 0;
#X connect 57 0 56 1;
#X connect 59 0 60 0;
#X connect 59 0 61 0;
#X connect 60 0 59 1;
#X connect 62 0 63 0;
#X connect 62 0 64 0;
#X connect 63 0 62 1;
#X connect 65 0 66 0;
#X connect 65 0 67 0;
#X connect 66 0 65 1;
#X connect 68 0 69 0;
#X connect 68 0 70 0;
#X connect 69 0 68 1;
#X connect 71 0 72 0;
#X connect 71 0 73 0;
#X connect 72 0 71 1;
#X connect 74 0 75 0;
#X connect 74 0 76 0;
#X connect 75 0 74 1;
#X connect 77 0 78 0;
#X connect 77 0 79 0;
#X connect 78 0 77 1;
#X connect 80 0 81 0;
#X connect 80 0 82 0;
#X connect 81 0 80 1;
#X connect 83 0 84 0;
#X connect 83 0 85 0;
#X connect 84 0 83 1;
#X connect 86 0 2 0;
#X connect 104 0 4 1;
#X connect 105 0 32 0;
#X connect 105 0 32 1;
